<svg width="30" height="30" viewBox="0 0 30 30" fill="none" xmlns="http://www.w3.org/2000/svg">
<path d="M8.74999 22.5C8.58548 22.501 8.4224 22.4694 8.27011 22.4072C8.11781 22.345 7.97929 22.2534 7.86249 22.1375L4.11249 18.3875C3.93904 18.2117 3.82155 17.9885 3.77483 17.746C3.72811 17.5035 3.75427 17.2526 3.84999 17.025C3.94377 16.7967 4.10301 16.6013 4.30766 16.4634C4.51231 16.3255 4.75321 16.2512 4.99999 16.25H25C25.3315 16.25 25.6495 16.3817 25.8839 16.6161C26.1183 16.8505 26.25 17.1685 26.25 17.5C26.25 17.8315 26.1183 18.1495 25.8839 18.3839C25.6495 18.6183 25.3315 18.75 25 18.75H8.01249L9.63749 20.3625C9.75465 20.4787 9.84764 20.617 9.9111 20.7693C9.97457 20.9216 10.0072 21.085 10.0072 21.25C10.0072 21.415 9.97457 21.5784 9.9111 21.7307C9.84764 21.883 9.75465 22.0213 9.63749 22.1375C9.52069 22.2534 9.38217 22.345 9.22987 22.4072C9.07758 22.4694 8.9145 22.501 8.74999 22.5Z" fill="#662D91"/>
<path d="M25 13.75H5C4.66848 13.75 4.35054 13.6183 4.11612 13.3839C3.8817 13.1495 3.75 12.8315 3.75 12.5C3.75 12.1685 3.8817 11.8505 4.11612 11.6161C4.35054 11.3817 4.66848 11.25 5 11.25H21.9875L20.3625 9.63749C20.1271 9.40211 19.9949 9.08286 19.9949 8.74999C19.9949 8.41711 20.1271 8.09787 20.3625 7.86249C20.5979 7.62711 20.9171 7.49487 21.25 7.49487C21.5829 7.49487 21.9021 7.62711 22.1375 7.86249L25.8875 11.6125C26.0609 11.7883 26.1784 12.0115 26.2252 12.254C26.2719 12.4965 26.2457 12.7473 26.15 12.975C26.0562 13.2033 25.897 13.3987 25.6923 13.5366C25.4877 13.6745 25.2468 13.7488 25 13.75Z" fill="black"/>
</svg>
