<svg width="40" height="40" viewBox="0 0 40 40" fill="none" xmlns="http://www.w3.org/2000/svg">
<path d="M25.8333 24.1667C25.8333 25.0872 25.0872 25.8333 24.1667 25.8333C23.2462 25.8333 22.5 25.0872 22.5 24.1667C22.5 23.2462 23.2462 22.5 24.1667 22.5C25.0872 22.5 25.8333 23.2462 25.8333 24.1667Z" fill="#662D91"/>
<path d="M17.5 15.8333C17.5 16.7538 16.7539 17.5 15.8334 17.5C14.9129 17.5 14.1667 16.7538 14.1667 15.8333C14.1667 14.9128 14.9129 14.1666 15.8334 14.1666C16.7539 14.1666 17.5 14.9128 17.5 15.8333Z" fill="#662D91"/>
<path fill-rule="evenodd" clip-rule="evenodd" d="M25.8838 14.1161C26.372 14.6043 26.372 15.3957 25.8838 15.8839L15.8839 25.8838C15.3957 26.372 14.6043 26.372 14.1161 25.8838C13.628 25.3957 13.628 24.6043 14.1161 24.1162L24.1162 14.1161C24.6043 13.628 25.3957 13.628 25.8838 14.1161Z" fill="#662D91"/>
<path fill-rule="evenodd" clip-rule="evenodd" d="M19.9044 2.09998H20.0956C23.9393 2.09996 26.9515 2.09994 29.3018 2.41593C31.7074 2.73936 33.6058 3.4143 35.0958 4.90426C36.5857 6.39423 37.2606 8.29249 37.5841 10.6982C37.9 13.0484 37.9 16.0607 37.9 19.9044V20.0956C37.9 23.9393 37.9 26.9515 37.5841 29.3018C37.2606 31.7074 36.5857 33.6058 35.0958 35.0958C33.6058 36.5857 31.7074 37.2606 29.3018 37.5841C26.9515 37.9 23.9393 37.9 20.0956 37.9H19.9044C16.0607 37.9 13.0484 37.9 10.6982 37.5841C8.29249 37.2606 6.39423 36.5857 4.90426 35.0958C3.4143 33.6058 2.73936 31.7074 2.41593 29.3018C2.09994 26.9515 2.09996 23.9393 2.09998 20.0956V19.9044C2.09996 16.0607 2.09994 13.0484 2.41593 10.6982C2.73936 8.29249 3.4143 6.39423 4.90426 4.90426C6.39423 3.4143 8.29249 2.73936 10.6982 2.41593C13.0484 2.09994 16.0607 2.09996 19.9044 2.09998ZM11.031 4.89133C8.90226 5.17753 7.61892 5.72184 6.67039 6.67039C5.72184 7.61892 5.17753 8.90226 4.89133 11.031C4.6003 13.1956 4.59765 16.04 4.59765 20C4.59765 23.96 4.6003 26.8043 4.89133 28.969C5.17753 31.0976 5.72184 32.3809 6.67039 33.3296C7.61892 34.2782 8.90226 34.8225 11.031 35.1086C13.1956 35.3996 16.04 35.4023 20 35.4023C23.96 35.4023 26.8043 35.3996 28.969 35.1086C31.0976 34.8225 32.3809 34.2782 33.3296 33.3296C34.2782 32.3809 34.8225 31.0976 35.1086 28.969C35.3996 26.8043 35.4023 23.96 35.4023 20C35.4023 16.04 35.3996 13.1956 35.1086 11.031C34.8225 8.90226 34.2782 7.61892 33.3296 6.67039C32.3809 5.72184 31.0976 5.17753 28.969 4.89133C26.8043 4.6003 23.96 4.59765 20 4.59765C16.04 4.59765 13.1956 4.6003 11.031 4.89133Z" fill="#662D91"/>
</svg>
