<svg width="40" height="40" viewBox="0 0 40 40" fill="none" xmlns="http://www.w3.org/2000/svg">
<path d="M5.68335 11.6117H34.3167V30.6937C34.3167 32.056 33.7495 33.3624 32.7399 34.3256C31.7304 35.2889 30.3611 35.83 28.9333 35.83H11.0667C9.63893 35.83 8.26966 35.2889 7.26009 34.3256C6.25052 33.3624 5.68335 32.056 5.68335 30.6937V11.6117Z" stroke="#3B2362" stroke-width="5" stroke-miterlimit="10"/>
<path d="M13.6333 16.1596V8.57446C13.6333 6.96341 14.3041 5.41835 15.4981 4.27917C16.692 3.13999 18.3114 2.5 20 2.5C21.6885 2.5 23.3079 3.13999 24.5019 4.27917C25.6959 5.41835 26.3666 6.96341 26.3666 8.57446V16.1596" stroke="#3B2362" stroke-width="5" stroke-miterlimit="10"/>
</svg>
